<?xml version="1.0" standalone="no"?>
<!DOCTYPE svg PUBLIC "-//W3C//DTD SVG 20010904//EN"
 "http://www.w3.org/TR/2001/REC-SVG-20010904/DTD/svg10.dtd">
<svg version="1.0" xmlns="http://www.w3.org/2000/svg"
 width="512.000000pt" height="512.000000pt" viewBox="0 0 512.000000 512.000000"
 preserveAspectRatio="xMidYMid meet">

<g transform="translate(0.000000,512.000000) scale(0.100000,-0.100000)"
fill="#000000" stroke="none">
<path d="M2451 3510 c-439 -61 -763 -449 -738 -885 8 -131 28 -209 87 -330 53
-111 133 -214 222 -285 31 -25 55 -49 55 -55 -1 -5 -40 -26 -87 -45 -230 -95
-440 -254 -598 -453 -34 -43 -74 -98 -88 -123 l-27 -45 39 -40 c101 -105 282
-232 439 -309 617 -303 1343 -237 1890 173 55 42 122 98 149 125 l49 51 -27
45 c-14 25 -54 80 -88 123 -156 198 -368 358 -603 454 -49 21 -88 41 -86 46 2
4 28 28 59 53 89 71 169 174 222 285 59 121 79 199 87 330 20 341 -173 660
-488 810 -138 65 -323 95 -468 75z"/>
</g>
</svg>
